<svg width="28" height="28" viewBox="0 0 28 28" fill="none" xmlns="http://www.w3.org/2000/svg">
<g clip-path="url(#clip0_4313_23999)">
<path fill-rule="evenodd" clip-rule="evenodd" d="M16.8806 3.38436C14.7174 2.79699 12.4263 2.88453 10.3142 3.63526C8.2021 4.38599 6.36974 5.76407 5.0625 7.58498V5.40561C5.0625 5.1321 4.95385 4.8698 4.76045 4.6764C4.56706 4.48301 4.30475 4.37436 4.03125 4.37436C3.75775 4.37436 3.49544 4.48301 3.30205 4.6764C3.10865 4.8698 3 5.1321 3 5.40561V11.2494H8.84375C9.11725 11.2494 9.37956 11.1407 9.57295 10.9473C9.76635 10.7539 9.875 10.4916 9.875 10.2181C9.875 9.9446 9.76635 9.6823 9.57295 9.4889C9.37956 9.29551 9.11725 9.18686 8.84375 9.18686H6.46913C7.54621 7.50178 9.15733 6.22664 11.0448 5.56543C12.9322 4.90421 14.9869 4.89514 16.88 5.53966C18.7732 6.18418 20.3956 7.44505 21.4875 9.12055C22.5794 10.7961 23.0778 12.7894 22.903 14.7816C22.7282 16.7739 21.8902 18.6499 20.5231 20.1096C19.1561 21.5693 17.339 22.5284 15.3625 22.8333C13.3859 23.1382 11.3643 22.7715 9.62084 21.7916C7.87742 20.8118 6.51301 19.2755 5.74587 17.4286C5.63695 17.1821 5.43588 16.9881 5.1857 16.888C4.93551 16.7879 4.65608 16.7897 4.40721 16.893C4.15834 16.9963 3.9598 17.193 3.85407 17.4408C3.74834 17.6887 3.74383 17.9681 3.8415 18.2192C4.55814 19.9442 5.70224 21.4583 7.16597 22.6187C8.6297 23.7792 10.3648 24.5478 12.2078 24.8521C14.0508 25.1564 15.9409 24.9863 17.7 24.358C19.459 23.7297 21.0291 22.6637 22.2622 21.2607C23.4953 19.8576 24.3508 18.1636 24.7481 16.3384C25.1454 14.5133 25.0713 12.617 24.5329 10.8283C23.9944 9.03968 23.0094 7.4176 21.6706 6.11501C20.3318 4.81241 18.6834 3.87356 16.8806 3.38436Z" fill="#333333"/>
</g>
<defs>
<clipPath id="clip0_4313_23999">
<rect width="22" height="22" fill="white" transform="translate(3 3)"/>
</clipPath>
</defs>
</svg>
